<?xml version="1.0" standalone="no"?>
<!DOCTYPE svg PUBLIC "-//W3C//DTD SVG 20010904//EN"
 "http://www.w3.org/TR/2001/REC-SVG-20010904/DTD/svg10.dtd">
<svg version="1.0" xmlns="http://www.w3.org/2000/svg"
 width="300.000000pt" height="170.000000pt" viewBox="0 0 300.000000 170.000000"
 preserveAspectRatio="xMidYMid meet">
<metadata>
Created by potrace 1.10, written by Peter Selinger 2001-2011
</metadata>
<g transform="translate(0.000000,170.000000) scale(0.100000,-0.100000)"
fill="#000000" stroke="none">
<path d="M1716 1458 c-18 -18 -37 -41 -43 -52 -9 -17 -14 -17 -49 -5 -21 7
-77 13 -124 13 -98 0 -165 -19 -252 -71 -61 -36 -158 -137 -157 -162 0 -11 5
-8 16 9 9 14 40 48 69 77 155 154 392 176 580 55 176 -114 261 -327 209 -526
-16 -61 -13 -88 4 -42 6 14 16 56 23 92 8 44 18 68 30 75 10 5 18 19 18 30 0
11 7 34 16 51 9 17 14 42 11 56 -3 17 2 35 14 51 29 37 26 111 -7 150 -30 36
-84 54 -121 40 -22 -8 -24 -7 -16 13 12 36 8 84 -10 112 -27 40 -63 59 -123
63 -52 3 -57 2 -88 -29z m132 -25 c1 -21 6 -51 12 -68 9 -27 9 -25 5 15 -3 25
-1 52 5 60 8 13 13 12 32 -8 18 -18 23 -34 23 -73 0 -44 -4 -54 -29 -74 l-29
-23 -53 40 c-50 40 -52 42 -37 64 8 13 12 28 8 34 -10 17 -39 11 -53 -10 -16
-26 -37 -27 -23 -2 25 47 69 82 103 82 33 0 35 -2 36 -37z m-74 -42 c3 -4 -3
-16 -13 -25 -22 -20 -40 -4 -21 19 14 17 26 19 34 6z m203 -111 c-21 -4 -51
-17 -68 -29 -31 -23 -41 -14 -11 11 23 21 41 26 82 26 l35 0 -38 -8z m60 -30
c55 -33 65 -84 28 -134 -14 -18 -15 -18 -44 7 -17 14 -43 28 -59 32 -26 5 -62
48 -62 74 0 15 50 40 80 41 14 0 39 -9 57 -20z m-42 -122 c6 -6 5 -12 -5 -18
-22 -14 -26 -13 -39 16 -10 24 -10 25 11 19 13 -4 27 -11 33 -17z m45 -38 c11
-20 3 -97 -10 -105 -11 -7 -36 26 -49 64 -9 29 -8 36 7 47 24 19 40 17 52 -6z"/>
<path d="M1388 1444 c-60 -14 -138 -50 -173 -79 -11 -9 0 -6 25 8 92 51 167
69 285 70 67 0 98 3 80 7 -49 12 -156 9 -217 -6z"/>
<path d="M1380 1356 c-107 -30 -217 -117 -266 -211 -24 -45 -33 -54 -49 -49
-38 12 -131 62 -144 78 -12 14 -9 18 20 30 19 7 58 19 87 26 28 6 52 16 52 21
0 13 -98 -1 -170 -25 -51 -17 -66 -26 -68 -43 -4 -28 48 -67 150 -113 l73 -33
0 -121 c0 -116 1 -124 32 -189 45 -94 129 -176 230 -225 75 -35 82 -37 183
-37 98 0 110 2 173 32 227 108 329 390 221 611 -33 68 -140 179 -203 211 -99
51 -221 65 -321 37z m270 -34 c58 -23 130 -75 119 -87 -4 -3 -29 8 -56 24 -76
47 -129 62 -218 63 -67 0 -89 -4 -130 -24 -28 -14 -56 -23 -63 -21 -8 3 -10
-1 -6 -12 4 -9 9 -14 13 -13 3 2 27 14 53 28 40 20 51 22 73 12 l26 -12 -23
-30 c-15 -20 -27 -28 -38 -24 -8 3 -34 9 -58 11 -44 6 -51 11 -57 42 -4 20 -1
22 110 60 48 17 192 7 255 -17z m-162 -24 c7 -7 12 -44 12 -97 l0 -86 -21 42
c-18 36 -19 48 -10 75 10 30 9 31 -4 14 -8 -11 -15 -27 -15 -35 0 -11 -3 -12
-11 -4 -9 9 -6 20 11 42 12 17 26 29 31 26 5 -4 6 1 3 9 -3 9 -10 13 -15 10
-5 -3 -17 0 -26 5 -16 9 -15 10 8 11 14 0 30 -5 37 -12z m62 -9 c0 -5 -4 -8
-8 -5 -5 3 -9 0 -9 -7 0 -7 -4 -21 -8 -32 -4 -11 3 -6 15 12 12 18 30 35 40
38 17 6 125 -40 157 -67 13 -11 12 -14 -13 -24 -25 -10 -29 -9 -39 9 -11 23
-92 84 -100 75 -3 -2 18 -19 46 -37 52 -35 53 -37 17 -55 -12 -6 -29 -26 -39
-43 -18 -32 -18 -33 2 -43 18 -10 19 -9 14 13 -4 14 -2 27 3 31 5 3 23 -28 40
-69 l31 -75 -30 0 c-19 0 -29 5 -29 15 0 8 -11 25 -24 36 -14 12 -22 27 -20
33 3 7 -12 21 -33 31 -35 18 -36 19 -14 23 13 2 27 -2 31 -8 4 -7 10 -8 13 -3
3 5 -10 20 -30 33 -61 42 -74 124 -20 129 4 1 7 -4 7 -10z m-270 -34 c9 -23
35 -32 73 -26 4 0 7 -4 7 -9 0 -5 11 -10 25 -10 28 0 31 -8 13 -32 -11 -14
-22 -15 -72 -7 -32 5 -74 16 -94 24 -19 9 -37 13 -40 10 -3 -2 8 -9 24 -15
l28 -11 -51 -23 c-28 -13 -54 -30 -59 -37 -4 -7 9 -3 30 9 20 12 39 22 42 22
11 0 2 -36 -17 -66 -19 -31 -22 -32 -47 -22 -36 16 -35 15 -26 30 5 7 9 19 10
25 4 25 45 82 89 122 24 22 47 41 50 41 3 0 10 -11 15 -25z m528 -53 c2 -12 7
-20 12 -17 4 3 13 -2 20 -10 10 -12 10 -15 0 -15 -9 0 -11 -10 -6 -30 3 -19 2
-29 -4 -25 -6 3 -10 14 -10 24 0 10 -6 31 -14 45 -13 25 -14 25 -19 6 -7 -26
-27 -26 -27 0 0 11 5 20 10 20 6 0 9 3 9 8 -3 17 2 23 14 20 6 -3 13 -14 15
-26z m-911 -6 c-3 -7 7 -25 21 -39 27 -26 126 -77 150 -77 13 0 17 -16 4 -24
-13 -8 -166 71 -192 99 -24 26 -25 27 -6 41 25 18 30 18 23 0z m573 -40 c0 -4
-7 -5 -16 -2 -9 3 -24 6 -35 6 -17 0 -18 3 -9 20 10 20 12 20 35 3 13 -10 25
-22 25 -27z m280 23 c0 -13 -4 -18 -12 -13 -7 4 -8 3 -4 -4 4 -7 20 -12 35
-12 23 0 31 -7 45 -39 21 -45 10 -78 -27 -85 -12 -3 -34 -7 -49 -10 -22 -5
-28 -2 -34 16 -3 13 -19 49 -35 82 -16 32 -29 60 -29 62 0 2 17 4 38 4 20 0
44 5 52 10 20 13 20 13 20 -11z m-407 -25 c22 -4 36 -11 33 -18 -2 -6 -13 -35
-22 -64 l-18 -54 -41 6 c-47 8 -65 28 -65 74 0 51 16 74 48 68 15 -3 44 -8 65
-12z m135 -19 c1 -1 5 -25 9 -54 3 -28 10 -51 14 -51 5 0 9 -4 9 -10 0 -12
-129 -13 -148 -2 -10 7 -8 22 10 71 l22 62 41 -7 c22 -3 41 -7 43 -9z m406
-31 c25 -53 46 -131 46 -176 0 -21 -2 -38 -4 -38 -2 0 -11 -3 -20 -6 -13 -5
-16 3 -16 48 0 49 -10 96 -38 186 -15 47 7 37 32 -14z m-309 -4 c3 -6 -1 -7
-9 -4 -29 11 -16 -6 24 -31 42 -26 58 -55 19 -35 -28 15 -33 7 -20 -30 12 -34
12 -34 -41 -8 -30 14 -37 28 -13 28 19 0 19 11 0 58 -13 29 -18 34 -25 22 -6
-9 -10 -10 -10 -3 0 6 5 15 10 18 6 4 8 11 4 17 -3 5 8 3 24 -6 17 -9 34 -20
37 -26z m-358 -30 c2 -21 -2 -30 -12 -30 -18 0 -19 14 -5 41 14 25 15 24 17
-11z m653 -65 c5 -39 10 -83 10 -99 l0 -30 -37 35 c-21 18 -32 27 -25 19 23
-26 14 -40 -25 -40 l-38 0 0 -56 c0 -55 0 -56 -36 -68 -30 -11 -41 -10 -63 1
-29 15 -97 20 -115 9 -6 -4 -14 0 -17 8 -3 8 -14 18 -25 21 -28 9 -23 25 11
32 46 9 30 27 -28 33 -42 5 -52 3 -52 -10 0 -24 16 -43 52 -59 23 -11 34 -24
35 -41 l3 -25 -10 23 c-7 17 -15 22 -30 17 -24 -8 -56 9 -110 58 l-42 39 7 65
7 65 83 -4 84 -3 10 -60 10 -60 -3 58 c-1 31 0 57 2 57 3 0 23 -8 43 -17 41
-19 50 -33 22 -33 -36 0 -48 -18 -49 -70 0 -27 3 -50 8 -50 4 0 8 4 8 9 0 5
28 12 63 15 80 9 143 24 107 25 l-24 1 29 28 c30 27 44 75 25 87 -5 3 -10 -1
-10 -10 0 -29 -40 -96 -63 -104 -12 -5 -46 -10 -75 -13 l-53 -5 3 31 c2 22 9
32 23 34 34 7 46 22 34 44 -6 11 -9 22 -7 24 3 2 47 8 99 14 100 10 129 26
129 73 0 45 20 -1 30 -68z m-732 44 c27 -9 30 -14 22 -29 -5 -10 -15 -41 -21
-69 -11 -52 -15 -56 -43 -45 -17 7 -22 64 -10 123 7 35 9 35 52 20z m91 -26
c21 -5 22 -10 17 -45 -7 -42 9 -84 49 -128 29 -32 42 -153 16 -146 -9 3 -44 8
-79 11 -67 8 -82 22 -82 79 0 19 5 23 24 21 23 -3 93 31 84 41 -3 2 -27 -3
-54 -11 -64 -19 -64 -19 -64 10 0 24 1 25 63 20 34 -2 53 -2 42 1 -11 3 -29 9
-40 14 -11 5 -29 10 -41 12 -20 3 -20 5 -7 66 15 65 20 69 72 55z m97 -45 c-3
-17 -6 -52 -6 -79 0 -27 -4 -49 -8 -49 -16 0 -52 88 -52 127 0 39 0 39 36 35
34 -4 36 -6 30 -34z m-196 -124 c0 -20 -5 -34 -12 -34 -10 0 -10 -2 0 -8 12
-8 35 -72 28 -79 -11 -12 -38 15 -47 48 -10 32 -9 42 5 63 22 34 20 43 -4 21
-19 -18 -20 -17 -20 7 0 22 4 25 25 20 21 -4 25 -10 25 -38z m740 12 c6 -8 18
-12 26 -9 17 6 19 -21 2 -34 -12 -9 -109 -43 -122 -43 -3 0 -6 20 -6 44 0 34
4 46 18 49 36 10 70 6 82 -7z m-484 -66 c32 -29 52 -40 75 -40 19 0 37 -7 45
-17 28 -37 18 -43 -75 -43 l-88 0 -7 38 c-8 48 -8 102 0 102 4 0 26 -18 50
-40z m524 -11 c0 -5 -5 -7 -12 -3 -8 5 -9 0 -5 -16 7 -27 -6 -57 -37 -83 -11
-10 -15 -16 -8 -12 24 13 -3 -27 -50 -72 -41 -40 -175 -119 -185 -109 -11 10
34 56 64 66 51 18 111 77 115 112 2 17 10 35 18 39 54 30 82 50 63 44 -26 -7
-28 -3 -13 26 11 20 50 27 50 8z m-66 -27 c-6 -20 -69 -51 -81 -39 -12 13 10
47 30 47 12 0 29 4 37 10 18 11 20 9 14 -18z m-174 -18 c24 -13 24 -13 -16
-14 -23 0 -60 -7 -83 -15 -22 -8 -41 -10 -41 -5 0 6 5 10 11 10 5 0 7 5 4 10
-4 6 -4 18 -1 26 5 12 16 14 53 8 27 -3 59 -13 73 -20z m81 -6 c-8 -22 -51
-45 -51 -28 0 6 8 11 18 11 16 1 16 2 0 6 -33 8 -17 30 24 32 14 1 16 -4 9
-21z m-566 -71 c40 -70 42 -75 15 -52 -21 19 -80 98 -80 108 0 3 8 3 18 1 9
-3 30 -28 47 -57z m489 1 c-23 -78 -37 -103 -60 -106 -16 -2 -20 3 -19 25 0
23 -5 29 -28 31 -46 5 -59 60 -19 78 14 6 67 15 129 23 9 1 8 -13 -3 -51z
m-396 26 c45 -6 52 -10 61 -37 16 -43 15 -45 -29 -52 -22 -4 -43 -11 -46 -17
-6 -10 16 -9 78 4 18 3 95 -95 78 -100 -19 -7 -142 57 -164 84 -11 15 -36 52
-54 82 l-33 55 29 -6 c16 -3 52 -9 80 -13z m500 -20 c-3 -33 -9 -40 -56 -67
-29 -16 -55 -28 -57 -25 -2 2 3 27 12 55 13 42 22 53 47 61 53 17 57 15 54
-24z m-263 -61 c0 -40 3 -73 8 -73 4 0 7 16 7 35 0 34 1 35 28 29 35 -9 36
-10 27 -31 -5 -10 -9 -24 -11 -32 -10 -51 -16 -61 -34 -61 -17 0 -19 5 -14 25
4 15 2 25 -5 25 -6 0 -11 -11 -11 -25 0 -20 -5 -25 -24 -25 -31 0 -80 55 -110
124 -41 91 -45 84 53 83 l87 -1 -1 -73z m93 -93 c-12 -16 -25 -30 -29 -30 -5
0 -3 14 2 30 7 19 18 30 30 30 19 0 19 -1 -3 -30z"/>
<path d="M1718 1101 c15 -28 29 -45 30 -40 4 10 -44 89 -53 89 -3 0 7 -22 23
-49z"/>
<path d="M1390 937 c0 -31 5 -59 10 -62 7 -4 8 13 4 52 -9 76 -14 80 -14 10z"/>
<path d="M1432 623 c-59 -4 -62 -23 -4 -23 48 0 83 10 76 21 -3 5 -8 8 -12 7
-4 -1 -31 -3 -60 -5z"/>
<path d="M1155 1320 c-10 -11 -28 -20 -39 -20 -12 0 -28 -5 -36 -10 -11 -7 -8
-10 16 -10 21 0 39 9 59 30 16 17 26 30 23 30 -3 0 -13 -9 -23 -20z"/>
<path d="M976 1003 c-3 -21 -5 -67 -4 -103 l1 -65 7 80 c4 44 10 90 14 103 4
12 3 22 -2 22 -5 0 -12 -17 -16 -37z"/>
<path d="M2040 868 c0 -18 -7 -60 -14 -93 -16 -65 -13 -85 5 -39 13 33 25 164
15 164 -3 0 -6 -15 -6 -32z"/>
<path d="M1010 836 c0 -41 38 -143 74 -200 72 -112 209 -202 347 -227 127 -22
266 13 380 97 27 20 49 40 49 45 0 6 -29 -11 -65 -36 -200 -143 -455 -123
-630 49 -67 67 -119 159 -134 239 -10 55 -21 73 -21 33z"/>
<path d="M1973 678 c-15 -33 -18 -46 -8 -38 14 11 40 78 33 85 -1 1 -13 -20
-25 -47z"/>
<path d="M1867 610 c-16 -16 -23 -28 -15 -26 20 2 61 43 51 49 -4 3 -21 -8
-36 -23z"/>
<path d="M1960 611 c-6 -12 -15 -19 -19 -17 -4 3 -23 -16 -40 -42 -29 -42 -30
-44 -5 -17 15 17 32 29 39 28 12 -3 50 55 42 64 -3 2 -10 -5 -17 -16z"/>
<path d="M1780 345 c0 -10 10 -15 32 -15 32 0 32 0 10 -16 -29 -20 -28 -34 3
-34 16 0 25 -6 25 -16 0 -11 -8 -14 -32 -12 -38 4 -50 -19 -14 -28 63 -15 111
32 68 67 -21 16 -21 17 -2 34 31 28 24 35 -35 35 -42 0 -55 -3 -55 -15z"/>
<path d="M1940 353 c-62 -22 -47 -133 19 -133 33 0 51 16 51 46 0 29 -24 47
-51 39 -15 -5 -20 -3 -17 6 3 8 16 14 29 14 28 0 43 16 26 27 -14 9 -35 9 -57
1z m38 -90 c2 -8 -5 -13 -17 -13 -12 0 -21 6 -21 16 0 18 31 15 38 -3z"/>
<path d="M2045 346 c-24 -18 -24 -80 1 -107 38 -42 104 -11 104 50 0 62 -57
92 -105 57z m68 -38 c7 -26 -8 -58 -28 -58 -17 0 -28 33 -20 60 8 27 41 26 48
-2z"/>
<path d="M913 280 c-26 -53 -27 -60 -12 -60 10 0 21 5 24 10 3 6 19 10 36 10
16 0 29 -4 29 -10 0 -5 9 -10 20 -10 19 0 19 3 -10 60 -17 33 -36 60 -44 60
-7 0 -26 -27 -43 -60z"/>
<path d="M1062 324 c-44 -31 -17 -104 39 -104 31 0 45 10 53 38 6 18 3 22 -12
22 -11 0 -22 -9 -25 -21 -5 -18 -9 -19 -27 -9 -14 7 -20 19 -18 33 3 19 9 22
41 20 26 -2 37 2 37 11 0 28 -54 34 -88 10z"/>
<path d="M1180 280 l0 -60 50 0 c38 0 50 4 50 15 0 10 -11 15 -35 15 -19 0
-35 5 -35 10 0 6 14 10 30 10 17 0 30 5 30 10 0 6 -13 10 -30 10 -16 0 -30 5
-30 10 0 6 16 10 35 10 24 0 35 5 35 15 0 11 -12 15 -50 15 l-50 0 0 -60z"/>
<path d="M1300 280 c0 -54 2 -60 21 -60 18 0 20 4 14 33 l-6 32 30 -32 c47
-51 61 -44 61 27 0 55 -2 60 -21 60 -19 0 -21 -4 -15 -30 3 -16 2 -30 -2 -30
-5 0 -18 14 -30 30 -36 49 -52 40 -52 -30z"/>
<path d="M1462 324 c-26 -18 -30 -65 -6 -88 17 -18 61 -21 84 -6 20 13 4 25
-33 25 -27 0 -32 4 -32 25 0 21 5 25 32 25 37 0 53 12 33 25 -22 14 -53 12
-78 -6z"/>
<path d="M1570 280 c0 -53 2 -60 20 -60 18 0 20 7 20 60 0 53 -2 60 -20 60
-18 0 -20 -7 -20 -60z"/>
<path d="M1650 280 c-28 -55 -29 -60 -11 -60 11 0 21 5 23 12 6 16 59 17 65 1
3 -7 14 -13 24 -13 18 0 17 5 -11 60 -17 33 -37 60 -45 60 -8 0 -28 -27 -45
-60z"/>
</g>
</svg>
